<svg width="200" height="200" viewBox="0 0 200 200" fill="none" xmlns="http://www.w3.org/2000/svg">
<g clip-path="url(#clip0_417_113)">
<mask id="path-1-inside-1_417_113" fill="white">
<path fill-rule="evenodd" clip-rule="evenodd" d="M141.961 59.016C143.305 63.5879 144.094 68.1866 144.37 72.7361C159.57 76.454 170.571 84.3597 173.891 95.6573C180.688 118.79 150.021 138.237 108.708 150.377C103.642 151.865 98.6505 153.175 93.7797 154.285C93.8343 155.877 93.6768 157.515 93.2844 159.156C91.1407 168.125 82.7979 173.817 74.6501 171.87C68.4712 170.393 64.1789 164.947 63.4002 158.489C43.2136 159.02 28.3836 153.568 24.2848 139.62C20.965 128.322 25.9401 115.722 36.7121 104.372C34.4826 100.397 32.6588 96.1017 31.3153 91.5298C22.0174 59.8885 39.2489 26.9597 69.803 17.9812C100.357 9.0028 132.663 27.3747 141.961 59.016Z"/>
</mask>
<path fill-rule="evenodd" clip-rule="evenodd" d="M141.961 59.016C143.305 63.5879 144.094 68.1866 144.37 72.7361C159.57 76.454 170.571 84.3597 173.891 95.6573C180.688 118.79 150.021 138.237 108.708 150.377C103.642 151.865 98.6505 153.175 93.7797 154.285C93.8343 155.877 93.6768 157.515 93.2844 159.156C91.1407 168.125 82.7979 173.817 74.6501 171.87C68.4712 170.393 64.1789 164.947 63.4002 158.489C43.2136 159.02 28.3836 153.568 24.2848 139.62C20.965 128.322 25.9401 115.722 36.7121 104.372C34.4826 100.397 32.6588 96.1017 31.3153 91.5298C22.0174 59.8885 39.2489 26.9597 69.803 17.9812C100.357 9.0028 132.663 27.3747 141.961 59.016Z" fill="#2A2E3B"/>
<path d="M144.37 72.7361L140.377 72.9779L140.556 75.921L143.42 76.6215L144.37 72.7361ZM141.961 59.016L145.799 57.8883L145.799 57.8883L141.961 59.016ZM173.891 95.6573L177.728 94.5295L177.728 94.5295L173.891 95.6573ZM108.708 150.377L107.58 146.539L107.58 146.539L108.708 150.377ZM93.7797 154.285L92.8912 150.385L89.6688 151.119L89.782 154.422L93.7797 154.285ZM93.2844 159.156L97.1748 160.086L97.1748 160.086L93.2844 159.156ZM74.6501 171.87L73.7203 175.76L73.7203 175.76L74.6501 171.87ZM63.4002 158.489L67.3714 158.01L66.9355 154.395L63.2951 154.491L63.4002 158.489ZM24.2848 139.62L20.4471 140.747L20.4471 140.747L24.2848 139.62ZM36.7121 104.372L39.6135 107.125L41.6432 104.987L40.2009 102.415L36.7121 104.372ZM31.3153 91.5298L35.1531 90.4021L35.1531 90.4021L31.3153 91.5298ZM69.803 17.9812L68.6752 14.1435L68.6752 14.1435L69.803 17.9812ZM148.363 72.4942C148.069 67.6462 147.228 62.7503 145.799 57.8883L138.124 60.1438C139.382 64.4255 140.12 68.727 140.377 72.9779L148.363 72.4942ZM177.728 94.5295C173.831 81.2675 161.172 72.7279 145.32 68.8506L143.42 76.6215C157.968 80.1802 167.31 87.4518 170.053 96.785L177.728 94.5295ZM109.836 154.214C130.7 148.083 149.239 140.013 161.788 130.303C174.286 120.632 181.82 108.452 177.728 94.5295L170.053 96.785C172.759 105.995 168.357 115.105 156.893 123.976C145.48 132.807 128.029 140.53 107.58 146.539L109.836 154.214ZM94.6681 158.185C99.6259 157.055 104.697 155.724 109.836 154.214L107.58 146.539C102.586 148.006 97.675 149.295 92.8912 150.385L94.6681 158.185ZM89.782 154.422C89.8244 155.656 89.7026 156.935 89.394 158.226L97.1748 160.086C97.6509 158.094 97.8442 156.097 97.7773 154.148L89.782 154.422ZM89.394 158.226C87.6778 165.407 81.236 169.331 75.58 167.98L73.7203 175.76C84.3598 178.303 94.6037 170.844 97.1748 160.086L89.394 158.226ZM75.58 167.98C71.2621 166.947 67.9801 163.058 67.3714 158.01L59.429 158.968C60.3776 166.835 65.6803 173.839 73.7203 175.76L75.58 167.98ZM20.4471 140.747C22.8742 149.007 28.5274 154.687 36.1655 158.131C43.6695 161.514 53.0957 162.762 63.5054 162.488L63.2951 154.491C53.5181 154.748 45.436 153.535 39.4537 150.838C33.6054 148.201 29.7942 144.181 28.1226 138.492L20.4471 140.747ZM33.8108 101.618C22.5772 113.455 16.55 127.485 20.4471 140.747L28.1226 138.492C25.38 129.159 29.303 117.989 39.6135 107.125L33.8108 101.618ZM27.4776 92.6575C28.9063 97.5195 30.8476 102.092 33.2234 106.329L40.2009 102.415C38.1177 98.7008 36.4113 94.6838 35.1531 90.4021L27.4776 92.6575ZM68.6752 14.1435C35.8763 23.7816 17.5943 59.0243 27.4776 92.6575L35.1531 90.4021C26.4405 60.7527 42.6216 30.1377 70.9307 21.819L68.6752 14.1435ZM145.799 57.8883C135.916 24.255 101.474 4.50539 68.6752 14.1435L70.9307 21.819C99.2399 13.5002 129.411 30.4944 138.124 60.1438L145.799 57.8883Z" fill="white" mask="url(#path-1-inside-1_417_113)"/>
<path d="M120.864 158.84V154.16H141.168V158.84H133.608V179H128.424V158.84H120.864ZM144.995 179V154.16H150.611L160.475 170.468V154.16H165.659V179H160.043L150.179 162.692V179H144.995Z" fill="#2A2E3B"/>
<path d="M120.864 158.84H118.864V160.84H120.864V158.84ZM120.864 154.16V152.16H118.864V154.16H120.864ZM141.168 154.16H143.168V152.16H141.168V154.16ZM141.168 158.84V160.84H143.168V158.84H141.168ZM133.608 158.84V156.84H131.608V158.84H133.608ZM133.608 179V181H135.608V179H133.608ZM128.424 179H126.424V181H128.424V179ZM128.424 158.84H130.424V156.84H128.424V158.84ZM122.864 158.84V154.16H118.864V158.84H122.864ZM120.864 156.16H141.168V152.16H120.864V156.16ZM139.168 154.16V158.84H143.168V154.16H139.168ZM141.168 156.84H133.608V160.84H141.168V156.84ZM131.608 158.84V179H135.608V158.84H131.608ZM133.608 177H128.424V181H133.608V177ZM130.424 179V158.84H126.424V179H130.424ZM128.424 156.84H120.864V160.84H128.424V156.84ZM144.995 179H142.995V181H144.995V179ZM144.995 154.16V152.16H142.995V154.16H144.995ZM150.611 154.16L152.322 153.125L151.739 152.16H150.611V154.16ZM160.475 170.468L158.764 171.503L162.475 177.639V170.468H160.475ZM160.475 154.16V152.16H158.475V154.16H160.475ZM165.659 154.16H167.659V152.16H165.659V154.16ZM165.659 179V181H167.659V179H165.659ZM160.043 179L158.332 180.035L158.915 181H160.043V179ZM150.179 162.692L151.89 161.657L148.179 155.521V162.692H150.179ZM150.179 179V181H152.179V179H150.179ZM146.995 179V154.16H142.995V179H146.995ZM144.995 156.16H150.611V152.16H144.995V156.16ZM148.9 155.195L158.764 171.503L162.186 169.433L152.322 153.125L148.9 155.195ZM162.475 170.468V154.16H158.475V170.468H162.475ZM160.475 156.16H165.659V152.16H160.475V156.16ZM163.659 154.16V179H167.659V154.16H163.659ZM165.659 177H160.043V181H165.659V177ZM161.754 177.965L151.89 161.657L148.468 163.727L158.332 180.035L161.754 177.965ZM148.179 162.692V179H152.179V162.692H148.179ZM150.179 177H144.995V181H150.179V177Z" fill="white"/>
</g>
<defs>
<clipPath id="clip0_417_113">
<rect width="200" height="200" fill="white"/>
</clipPath>
</defs>
</svg>
